<svg xmlns="http://www.w3.org/2000/svg" viewBox="0 0 26.14 38.92"><defs><style>.cls-1{fill:#ef767a;}.cls-2{fill:gray;}.cls-2,.cls-3{opacity:0.8;}.cls-3{fill:#4d4d4d;}</style></defs><title>Asset 17</title><g id="Layer_2" data-name="Layer 2"><g id="Layer_1-2" data-name="Layer 1"><path class="cls-1" d="M0,38.81V31H2.32a3.76,3.76,0,0,1,1.85.46,3.16,3.16,0,0,1,1.24,1.32,4.12,4.12,0,0,1,.45,1.95v.4a4.14,4.14,0,0,1-.45,2,3.06,3.06,0,0,1-1.27,1.3,3.72,3.72,0,0,1-1.88.46Zm1.36-6.75v5.66h.89a2,2,0,0,0,1.65-.67,3,3,0,0,0,.59-1.93v-.43a3,3,0,0,0-.56-2,2,2,0,0,0-1.61-.67Z"/><path class="cls-1" d="M7.22,38.81V31H9.53a3.73,3.73,0,0,1,1.85.46,3.19,3.19,0,0,1,1.25,1.32,4.24,4.24,0,0,1,.44,1.95v.4a4.25,4.25,0,0,1-.44,2,3.12,3.12,0,0,1-1.27,1.3,3.78,3.78,0,0,1-1.89.46Zm1.36-6.75v5.66h.89a2.06,2.06,0,0,0,1.65-.67,3,3,0,0,0,.58-1.93v-.43a3,3,0,0,0-.55-2,2,2,0,0,0-1.62-.67Z"/><path class="cls-1" d="M19,35.31H15.8v2.41h3.76v1.09H14.43V31h5.1v1.1H15.8v2.17H19Z"/><path class="cls-1" d="M24.78,36.79a1,1,0,0,0-.36-.8,4.65,4.65,0,0,0-1.32-.56,6.63,6.63,0,0,1-1.51-.64A2,2,0,0,1,20.52,33a1.92,1.92,0,0,1,.77-1.56,3.15,3.15,0,0,1,2-.62,3.37,3.37,0,0,1,1.46.3,2.39,2.39,0,0,1,1,.87,2.14,2.14,0,0,1,.37,1.23H24.78a1.21,1.21,0,0,0-.39-1,1.58,1.58,0,0,0-1.1-.35,1.69,1.69,0,0,0-1,.29,1,1,0,0,0-.37.8.9.9,0,0,0,.4.72,4.73,4.73,0,0,0,1.32.56,6.06,6.06,0,0,1,1.47.62,2.42,2.42,0,0,1,.82.8,2.09,2.09,0,0,1,.25,1.05,1.88,1.88,0,0,1-.75,1.56,3.23,3.23,0,0,1-2,.58,3.71,3.71,0,0,1-1.57-.32,2.7,2.7,0,0,1-1.11-.87,2.19,2.19,0,0,1-.39-1.29h1.36a1.29,1.29,0,0,0,.44,1,2,2,0,0,0,1.27.36,1.63,1.63,0,0,0,1.07-.29A.92.92,0,0,0,24.78,36.79Z"/><rect class="cls-2" x="9.56" y="18.75" width="7.03" height="7.03"/><rect class="cls-3" x="18.93" width="7.03" height="7.03"/><rect class="cls-2" x="18.93" y="9.38" width="7.03" height="7.03"/><rect class="cls-3" x="18.93" y="18.75" width="7.03" height="7.03"/><rect class="cls-2" x="9.56" width="7.03" height="7.03"/><rect class="cls-3" x="0.18" y="18.75" width="7.03" height="7.03"/><rect class="cls-3" x="0.18" y="9.38" width="7.03" height="7.03"/><rect class="cls-3" x="0.18" width="7.03" height="7.03"/></g></g></svg>