<svg xmlns="http://www.w3.org/2000/svg" viewBox="0 0 84.48 25.78"><defs><style>.cls-1{fill:#ef767a;}.cls-2{fill:gray;}.cls-2,.cls-3{opacity:0.8;}.cls-3{fill:#4d4d4d;}</style></defs><title>Asset 16</title><g id="Layer_2" data-name="Layer 2"><g id="Layer_1-2" data-name="Layer 1"><path class="cls-1" d="M38.86,19.74V6h4a6.38,6.38,0,0,1,3.23.81,5.54,5.54,0,0,1,2.17,2.3,7.19,7.19,0,0,1,.78,3.4v.69a7.26,7.26,0,0,1-.78,3.43,5.5,5.5,0,0,1-2.21,2.27,6.6,6.6,0,0,1-3.29.8ZM41.24,8v9.88h1.55a3.55,3.55,0,0,0,2.87-1.17,5.12,5.12,0,0,0,1-3.36v-.77a5.26,5.26,0,0,0-1-3.4A3.44,3.44,0,0,0,42.9,8Z"/><path class="cls-1" d="M51.45,19.74V6h4a6.38,6.38,0,0,1,3.23.81,5.56,5.56,0,0,1,2.18,2.3,7.31,7.31,0,0,1,.77,3.4v.69a7.26,7.26,0,0,1-.78,3.43,5.44,5.44,0,0,1-2.21,2.27,6.57,6.57,0,0,1-3.29.8ZM53.83,8v9.88h1.55a3.59,3.59,0,0,0,2.88-1.17,5.18,5.18,0,0,0,1-3.36v-.77a5.26,5.26,0,0,0-1-3.4A3.44,3.44,0,0,0,55.49,8Z"/><path class="cls-1" d="M72.05,13.63H66.42v4.21H73v1.9H64V6h8.89V8H66.42v3.78h5.63Z"/><path class="cls-1" d="M82.1,16.21a1.64,1.64,0,0,0-.64-1.39,7.61,7.61,0,0,0-2.29-1,10.86,10.86,0,0,1-2.63-1.11,3.51,3.51,0,0,1-1.88-3.07A3.32,3.32,0,0,1,76,6.93a5.45,5.45,0,0,1,3.51-1.08,6,6,0,0,1,2.55.53,4.17,4.17,0,0,1,1.76,1.5A3.83,3.83,0,0,1,84.47,10H82.1a2.19,2.19,0,0,0-.67-1.68,2.81,2.81,0,0,0-1.93-.61,2.91,2.91,0,0,0-1.81.5,1.67,1.67,0,0,0-.64,1.39,1.49,1.49,0,0,0,.69,1.26,8,8,0,0,0,2.3,1A11.08,11.08,0,0,1,82.61,13,4.14,4.14,0,0,1,84,14.36a3.61,3.61,0,0,1,.45,1.84,3.26,3.26,0,0,1-1.31,2.72,5.76,5.76,0,0,1-3.57,1,6.63,6.63,0,0,1-2.73-.55,4.59,4.59,0,0,1-1.94-1.52,3.78,3.78,0,0,1-.69-2.26h2.38a2.24,2.24,0,0,0,.77,1.81,3.37,3.37,0,0,0,2.21.64,3,3,0,0,0,1.87-.5A1.63,1.63,0,0,0,82.1,16.21Z"/><rect class="cls-2" x="9.38" y="18.75" width="7.03" height="7.03"/><rect class="cls-3" x="18.75" width="7.03" height="7.03"/><rect class="cls-2" x="18.75" y="9.38" width="7.03" height="7.03"/><rect class="cls-3" x="18.75" y="18.75" width="7.03" height="7.03"/><rect class="cls-2" x="9.38" width="7.03" height="7.03"/><rect class="cls-3" y="18.75" width="7.03" height="7.03"/><rect class="cls-3" y="9.38" width="7.03" height="7.03"/><rect class="cls-3" width="7.03" height="7.03"/></g></g></svg>